<mxfile host="app.diagrams.net" modified="2024-05-28T16:09:05.505Z" agent="Mozilla/5.0 (Windows NT 10.0; Win64; x64) AppleWebKit/537.36 (KHTML, like Gecko) Chrome/124.0.0.0 Safari/537.36" etag="53Lr2D5dcOlN4yyu4u79" version="24.4.9" type="device">
  <diagram name="Страница — 1" id="zhSPEE8QUuminEkkHsBI">
    <mxGraphModel dx="1646" dy="921" grid="1" gridSize="10" guides="1" tooltips="1" connect="1" arrows="1" fold="1" page="1" pageScale="1" pageWidth="827" pageHeight="1169" math="0" shadow="0">
      <root>
        <mxCell id="0" />
        <mxCell id="1" parent="0" />
        <mxCell id="wsoTdYjOOG8m2r602QKF-1" value="" style="rounded=0;whiteSpace=wrap;html=1;" parent="1" vertex="1">
          <mxGeometry x="10" y="70" width="770" height="750" as="geometry" />
        </mxCell>
        <mxCell id="-fM8ci7U5-hMbF4uqANQ-24" value="&lt;span style=&quot;font-size: 16px;&quot;&gt;NetMate&lt;/span&gt;" style="rounded=0;whiteSpace=wrap;html=1;fillColor=none;horizontal=1;verticalAlign=top;" parent="1" vertex="1">
          <mxGeometry x="148" y="90" width="610" height="710" as="geometry" />
        </mxCell>
        <mxCell id="wFLAS6cA91xlgfbtRP3D-1" style="edgeStyle=orthogonalEdgeStyle;rounded=0;orthogonalLoop=1;jettySize=auto;html=1;exitX=0.5;exitY=0.5;exitDx=0;exitDy=0;exitPerimeter=0;entryX=0;entryY=0.5;entryDx=0;entryDy=0;" edge="1" parent="1" source="-fM8ci7U5-hMbF4uqANQ-1" target="-fM8ci7U5-hMbF4uqANQ-15">
          <mxGeometry relative="1" as="geometry" />
        </mxCell>
        <mxCell id="wFLAS6cA91xlgfbtRP3D-2" style="edgeStyle=orthogonalEdgeStyle;rounded=0;orthogonalLoop=1;jettySize=auto;html=1;exitX=0.5;exitY=0.5;exitDx=0;exitDy=0;exitPerimeter=0;entryX=0;entryY=0.5;entryDx=0;entryDy=0;" edge="1" parent="1" source="-fM8ci7U5-hMbF4uqANQ-1" target="kRn9OQxEe0u6Z5Pbxh_v-8">
          <mxGeometry relative="1" as="geometry" />
        </mxCell>
        <mxCell id="-fM8ci7U5-hMbF4uqANQ-1" value="Зритель" style="shape=umlActor;verticalLabelPosition=bottom;verticalAlign=top;html=1;outlineConnect=0;" parent="1" vertex="1">
          <mxGeometry x="60" y="426" width="30" height="60" as="geometry" />
        </mxCell>
        <mxCell id="-fM8ci7U5-hMbF4uqANQ-4" value="&lt;span style=&quot;font-size: 16px;&quot;&gt;Ведение трансляции&lt;/span&gt;" style="ellipse;whiteSpace=wrap;html=1;" parent="1" vertex="1">
          <mxGeometry x="227" y="640" width="120" height="80" as="geometry" />
        </mxCell>
        <mxCell id="-fM8ci7U5-hMbF4uqANQ-15" value="&lt;font style=&quot;font-size: 16px;&quot;&gt;Поиск трансляций&lt;/font&gt;" style="ellipse;whiteSpace=wrap;html=1;" parent="1" vertex="1">
          <mxGeometry x="370" y="358" width="120" height="80" as="geometry" />
        </mxCell>
        <mxCell id="-fM8ci7U5-hMbF4uqANQ-20" value="extend" style="edgeStyle=orthogonalEdgeStyle;rounded=0;orthogonalLoop=1;jettySize=auto;html=1;exitX=0;exitY=0.5;exitDx=0;exitDy=0;entryX=1;entryY=0.5;entryDx=0;entryDy=0;curved=0;startArrow=none;startFill=0;endArrow=classic;endFill=1;fontSize=14;" parent="1" source="kRn9OQxEe0u6Z5Pbxh_v-10" target="kRn9OQxEe0u6Z5Pbxh_v-8" edge="1">
          <mxGeometry x="-0.0028" relative="1" as="geometry">
            <mxPoint x="430" y="718" as="sourcePoint" />
            <mxPoint as="offset" />
          </mxGeometry>
        </mxCell>
        <mxCell id="kRn9OQxEe0u6Z5Pbxh_v-13" value="extend" style="edgeStyle=orthogonalEdgeStyle;rounded=0;orthogonalLoop=1;jettySize=auto;html=1;exitX=0;exitY=0.5;exitDx=0;exitDy=0;entryX=1;entryY=0.5;entryDx=0;entryDy=0;curved=0;" parent="1" source="kRn9OQxEe0u6Z5Pbxh_v-4" target="-fM8ci7U5-hMbF4uqANQ-4" edge="1">
          <mxGeometry relative="1" as="geometry" />
        </mxCell>
        <mxCell id="kRn9OQxEe0u6Z5Pbxh_v-4" value="&lt;font style=&quot;font-size: 16px;&quot;&gt;Настройка трансляции&lt;/font&gt;" style="ellipse;whiteSpace=wrap;html=1;" parent="1" vertex="1">
          <mxGeometry x="407" y="580" width="120" height="80" as="geometry" />
        </mxCell>
        <mxCell id="kRn9OQxEe0u6Z5Pbxh_v-8" value="&lt;span style=&quot;font-size: 16px;&quot;&gt;Просмотр трансляции&lt;/span&gt;" style="ellipse;whiteSpace=wrap;html=1;" parent="1" vertex="1">
          <mxGeometry x="370" y="468" width="120" height="80" as="geometry" />
        </mxCell>
        <mxCell id="kRn9OQxEe0u6Z5Pbxh_v-10" value="&lt;font style=&quot;font-size: 16px;&quot;&gt;Писать в чат&lt;/font&gt;" style="ellipse;whiteSpace=wrap;html=1;" parent="1" vertex="1">
          <mxGeometry x="580" y="468" width="120" height="80" as="geometry" />
        </mxCell>
        <mxCell id="kRn9OQxEe0u6Z5Pbxh_v-16" value="extend" style="edgeStyle=orthogonalEdgeStyle;rounded=0;orthogonalLoop=1;jettySize=auto;html=1;exitX=0;exitY=0.5;exitDx=0;exitDy=0;entryX=1;entryY=0.5;entryDx=0;entryDy=0;curved=0;" parent="1" source="kRn9OQxEe0u6Z5Pbxh_v-15" target="-fM8ci7U5-hMbF4uqANQ-4" edge="1">
          <mxGeometry relative="1" as="geometry" />
        </mxCell>
        <mxCell id="kRn9OQxEe0u6Z5Pbxh_v-15" value="&lt;font style=&quot;font-size: 16px;&quot;&gt;Блокировка пользователей&lt;/font&gt;" style="ellipse;whiteSpace=wrap;html=1;" parent="1" vertex="1">
          <mxGeometry x="407" y="700" width="120" height="80" as="geometry" />
        </mxCell>
        <mxCell id="kRn9OQxEe0u6Z5Pbxh_v-17" value="&lt;span style=&quot;font-size: 16px;&quot;&gt;Авторизация&lt;/span&gt;" style="ellipse;whiteSpace=wrap;html=1;" parent="1" vertex="1">
          <mxGeometry x="370" y="248" width="120" height="80" as="geometry" />
        </mxCell>
        <mxCell id="kRn9OQxEe0u6Z5Pbxh_v-21" value="&lt;span style=&quot;font-size: 16px;&quot;&gt;Регистрация&lt;/span&gt;" style="ellipse;whiteSpace=wrap;html=1;" parent="1" vertex="1">
          <mxGeometry x="370" y="138" width="120" height="80" as="geometry" />
        </mxCell>
        <mxCell id="f4pVbA5-XPThxlIHD0b5-6" style="edgeStyle=orthogonalEdgeStyle;rounded=0;orthogonalLoop=1;jettySize=auto;html=1;exitX=0.5;exitY=0.5;exitDx=0;exitDy=0;exitPerimeter=0;entryX=0;entryY=0.5;entryDx=0;entryDy=0;endArrow=none;endFill=0;" parent="1" source="ZFv3tHoXCfHOBrr2b7sb-1" target="-fM8ci7U5-hMbF4uqANQ-4" edge="1">
          <mxGeometry relative="1" as="geometry" />
        </mxCell>
        <mxCell id="ZFv3tHoXCfHOBrr2b7sb-1" value="Стример" style="shape=umlActor;verticalLabelPosition=bottom;verticalAlign=top;html=1;outlineConnect=0;" parent="1" vertex="1">
          <mxGeometry x="60" y="650" width="30" height="60" as="geometry" />
        </mxCell>
        <mxCell id="wFLAS6cA91xlgfbtRP3D-3" style="edgeStyle=orthogonalEdgeStyle;rounded=0;orthogonalLoop=1;jettySize=auto;html=1;exitX=0.5;exitY=0.5;exitDx=0;exitDy=0;exitPerimeter=0;" edge="1" parent="1" source="f4pVbA5-XPThxlIHD0b5-3" target="kRn9OQxEe0u6Z5Pbxh_v-21">
          <mxGeometry relative="1" as="geometry" />
        </mxCell>
        <mxCell id="wFLAS6cA91xlgfbtRP3D-4" style="edgeStyle=orthogonalEdgeStyle;rounded=0;orthogonalLoop=1;jettySize=auto;html=1;exitX=0.5;exitY=0.5;exitDx=0;exitDy=0;exitPerimeter=0;entryX=0;entryY=0.5;entryDx=0;entryDy=0;" edge="1" parent="1" source="f4pVbA5-XPThxlIHD0b5-3" target="kRn9OQxEe0u6Z5Pbxh_v-17">
          <mxGeometry relative="1" as="geometry" />
        </mxCell>
        <mxCell id="f4pVbA5-XPThxlIHD0b5-3" value="Неавторизованный&lt;div&gt;пользователь&lt;/div&gt;" style="shape=umlActor;verticalLabelPosition=bottom;verticalAlign=top;html=1;outlineConnect=0;" parent="1" vertex="1">
          <mxGeometry x="60" y="207" width="30" height="60" as="geometry" />
        </mxCell>
        <mxCell id="fczmPAKl8_qNhZypd1XB-3" style="edgeStyle=orthogonalEdgeStyle;rounded=0;orthogonalLoop=1;jettySize=auto;html=1;exitX=0.5;exitY=0.5;exitDx=0;exitDy=0;exitPerimeter=0;entryX=0.5;entryY=0;entryDx=0;entryDy=0;entryPerimeter=0;endArrow=block;endFill=0;targetPerimeterSpacing=0;strokeWidth=1;endSize=16;" parent="1" source="f4pVbA5-XPThxlIHD0b5-3" target="-fM8ci7U5-hMbF4uqANQ-1" edge="1">
          <mxGeometry relative="1" as="geometry" />
        </mxCell>
      </root>
    </mxGraphModel>
  </diagram>
</mxfile>
